<svg width="12" height="12" viewBox="0 0 12 12" fill="none" xmlns="http://www.w3.org/2000/svg">
<path d="M9.2344 11.0729C9.15547 11.0732 9.07845 11.0486 9.01432 11.0026L6.00002 8.81724L2.98572 11.0026C2.92133 11.0493 2.84374 11.0743 2.76419 11.074C2.68464 11.0737 2.60723 11.0481 2.54318 11.0009C2.47912 10.9538 2.43173 10.8874 2.40785 10.8116C2.38396 10.7357 2.38484 10.6542 2.41033 10.5788L3.58596 7.0967L0.539084 5.00724C0.473087 4.96203 0.423276 4.89691 0.396929 4.82137C0.370582 4.74584 0.36908 4.66386 0.392643 4.58741C0.416206 4.51096 0.463598 4.44405 0.527895 4.39646C0.592193 4.34886 0.670025 4.32308 0.750022 4.32287H4.50893L5.6433 0.831852C5.66774 0.756482 5.71542 0.690789 5.77951 0.644198C5.84359 0.597606 5.92079 0.57251 6.00002 0.57251C6.07925 0.57251 6.15645 0.597606 6.22054 0.644198C6.28462 0.690789 6.3323 0.756482 6.35674 0.831852L7.49112 4.32404H11.25C11.3301 4.324 11.4081 4.34961 11.4726 4.39711C11.5371 4.44461 11.5847 4.51152 11.6084 4.58802C11.6321 4.66453 11.6307 4.74662 11.6044 4.82227C11.5781 4.89792 11.5282 4.96315 11.4621 5.00841L8.41408 7.0967L9.58901 10.5779C9.60804 10.6342 9.6134 10.6943 9.60463 10.7531C9.59586 10.812 9.57322 10.8679 9.53857 10.9163C9.50393 10.9646 9.45827 11.004 9.40538 11.0313C9.35249 11.0585 9.29389 11.0728 9.2344 11.0729Z" fill="#FF859B"/>
</svg>
